HIERARCHY
ROOT Hips
{
	OFFSET -3.958830 18.904000 13.208200
	CHANNELS 6 Xposition Yposition Zposition Zrotation Yrotation Xrotation 
	JOINT LHipJoint
	{
		OFFSET 0.000000 0.000000 0.000000
		CHANNELS 3 Zrotation Yrotation Xrotation
		JOINT LeftUpLeg
		{
			OFFSET 1.800000 -1.400000 0.085000
			CHANNELS 3 Zrotation Yrotation Xrotation
			JOINT LeftLeg
			{
				OFFSET 2.215000 -6.000000 0.000000
				CHANNELS 3 Zrotation Yrotation Xrotation
				JOINT LeftFoot
				{
					OFFSET 2.500000 -6.900000 0.000000
					CHANNELS 3 Zrotation Yrotation Xrotation
					JOINT LeftToeBase
					{
						OFFSET 0.200000 -0.500000 1.950000
						CHANNELS 3 Zrotation Yrotation Xrotation
						End Site
						{
							OFFSET 0.000000 0.000000 0.000000
						}
					}
				}
			}
		}
	}
	JOINT RHipJoint
	{
		OFFSET 0.000000 0.000000 0.000000
		CHANNELS 3 Zrotation Yrotation Xrotation
		JOINT RightUpLeg
		{
			OFFSET -1.800000 -1.400000 0.085000
			CHANNELS 3 Zrotation Yrotation Xrotation
			JOINT RightLeg
			{
				OFFSET -2.215000 -6.000000 0.000000
				CHANNELS 3 Zrotation Yrotation Xrotation
				JOINT RightFoot
				{
					OFFSET -2.500000 -6.900000 0.000000
					CHANNELS 3 Zrotation Yrotation Xrotation
					JOINT RightToeBase
					{
						OFFSET -0.200000 -0.500000 1.950000
						CHANNELS 3 Zrotation Yrotation Xrotation
						End Site
						{
							OFFSET 0.000000 0.000000 0.000000
						}
					}
				}
			}
		}
	}
	JOINT LowerBack
	{
		OFFSET 0.000000 0.000000 0.000000
		CHANNELS 3 Zrotation Yrotation Xrotation
		JOINT Spine
		{
			OFFSET -0.087000 1.940000 -0.288900
			CHANNELS 3 Zrotation Yrotation Xrotation
			JOINT Spine1
			{
				OFFSET 0.000000 1.950000 0.060000
				CHANNELS 3 Zrotation Yrotation Xrotation
				JOINT Neck
				{
					OFFSET 0.000000 0.000000 0.000000
					CHANNELS 3 Zrotation Yrotation Xrotation
					JOINT Neck1
					{
						OFFSET 0.000000 1.600000 0.340000
						CHANNELS 3 Zrotation Yrotation Xrotation
						JOINT Head
						{
							OFFSET 0.000000 1.667000 -0.240000
							CHANNELS 3 Zrotation Yrotation Xrotation
							End Site
							{
								OFFSET 0.000000 0.000000 0.000000
							}
						}
					}
				}
				JOINT LeftShoulder
				{
					OFFSET 0.000000 0.000000 0.000000
					CHANNELS 3 Zrotation Yrotation Xrotation
					JOINT LeftArm
					{
						OFFSET 2.700000 1.550000 -0.730000
						CHANNELS 3 Zrotation Yrotation Xrotation
						JOINT LeftForeArm
						{
							OFFSET 5.450000 0.000000 0.000000
							CHANNELS 3 Zrotation Yrotation Xrotation
							JOINT LeftHand
							{
								OFFSET 3.450000 0.000000 0.000000
								CHANNELS 3 Zrotation Yrotation Xrotation
								JOINT LeftHandIndex1
								{
									OFFSET 0.750000 0.000000 0.000000
									CHANNELS 3 Zrotation Yrotation Xrotation
									End Site
									{
										OFFSET 0.000000 0.000000 0.000000
									}
								}
							}
						}
					}
				}
				JOINT RightShoulder
				{
					OFFSET 0.000000 0.000000 0.000000
					CHANNELS 3 Zrotation Yrotation Xrotation
					JOINT RightArm
					{
						OFFSET -2.700000 1.550000 -0.730000
						CHANNELS 3 Zrotation Yrotation Xrotation
						JOINT RightForeArm
						{
							OFFSET -5.450000 0.000000 0.000000
							CHANNELS 3 Zrotation Yrotation Xrotation
							JOINT RightHand
							{
								OFFSET -3.450000 0.000000 0.000000
								CHANNELS 3 Zrotation Yrotation Xrotation
								JOINT RightHandIndex1
								{
									OFFSET -0.750000 0.000000 0.000000
									CHANNELS 3 Zrotation Yrotation Xrotation
									End Site
									{
										OFFSET 0.000000 0.000000 0.000000
									}
								}
							}
						}
					}
				}
			}
		}
	}
}
MOTION
Frames: 13
Frame Time: 0.016667
0.402500 17.286070 -8.725390 -3.303696 5.771983 18.975543 -15.061962 11.840830 3.669970 1.071310 -4.370371 -24.888420 -14.291193 4.164666 3.332127 0.300787 3.320960 3.941246 -0.073250 -0.103860 -0.459330 18.427646 -10.318598 3.582695 -0.812183 3.947598 -24.340211 12.382947 -2.233096 -1.243461 0.388937 -3.135735 3.749111 -0.064140 1.061020 0.356720 -4.024977 0.050876 -8.203591 14.233466 -2.899447 4.592387 -7.097204 -1.514460 -16.646565 4.491001 3.680212 -8.055282 7.263553 -14.514785 20.194132 -14.833230 -8.644520 24.991980 13.526881 9.903222 -1.591695 -35.663751 -1.344799 -4.233387 149.656780 1.091034 17.623543 -4.254589 4.714823 -0.778740 0.886340 -0.605850 0.692750 -25.685237 -6.174303 3.093077 50.036203 -2.744535 -19.927416 -146.405760 -10.837920 42.481588 2.987503 -3.537215 0.032440 0.025570 -0.192050 0.533210 
0.407960 17.273690 -8.758060 -3.809910 6.106842 18.035394 -15.016585 11.800254 3.615639 1.770413 -4.404220 -24.978817 -14.361707 4.381892 4.434205 0.213048 3.445050 3.880710 -0.063200 -0.128240 -0.435120 18.484815 -10.305298 3.599529 -0.817055 3.763298 -22.841734 13.051290 -2.166733 -2.503828 0.339740 -3.265291 3.677755 -0.052740 1.051890 0.345630 -4.180474 0.087567 -8.189255 15.797749 -3.509867 4.879082 -7.921749 -1.873985 -14.771790 4.452434 3.688313 -7.671632 7.172260 -13.924094 20.566330 -13.853240 -8.977460 23.467480 10.809768 7.803695 -0.654573 -33.200815 -0.687904 -4.129288 149.980726 1.141261 13.996693 -4.251559 4.661654 -0.721000 0.870740 -0.631410 0.635020 -22.863597 -5.239093 2.437622 48.391736 -1.300781 -20.090299 -148.580391 -11.198670 43.551541 2.886485 -3.556371 0.001980 0.047700 -0.132230 0.473690 
0.376060 17.275260 -8.819570 -4.278225 -0.226358 16.454016 -14.971082 11.646295 3.569123 2.824719 -3.896721 -22.028342 -15.918039 4.221757 1.918193 0.045560 3.774357 3.733338 -0.084330 -0.257830 -0.368490 18.537830 -10.396520 3.579076 -1.068501 3.701079 -21.908063 13.609847 -2.366457 -2.327958 0.298093 -3.301927 3.607294 -0.081130 0.997720 0.297430 -4.260633 0.542301 -8.164129 13.823219 -1.776189 5.903319 -6.218465 -0.433447 -10.887723 3.756881 4.064580 -7.897474 7.371693 -11.139644 23.647167 -11.815360 -7.595910 21.376950 5.103148 3.914533 1.330813 -28.200589 2.653790 -3.943367 148.179312 0.145755 3.174120 -4.241753 4.412417 -0.514070 0.808280 -0.662340 0.480430 -15.113036 -2.875419 2.009665 42.160079 2.358952 -17.076292 -150.875402 -10.119956 37.919401 2.623496 -3.527879 -0.105250 0.095750 0.019380 0.300320 
0.323120 17.272620 -8.821820 -4.082062 -1.658577 15.157154 -15.008345 11.443437 3.530935 4.079865 -3.576880 -19.840862 -17.841235 4.276592 0.512587 0.031014 4.091892 3.574845 -0.038330 -0.231130 -0.318960 18.542085 -10.423738 3.509296 -0.868254 3.259564 -19.872678 13.230351 -2.299503 -3.634930 0.244246 -3.432919 3.548142 -0.045310 0.916850 0.274670 -4.194056 0.896587 -8.034047 11.036652 -0.247416 5.847830 -3.426926 0.143820 -6.961575 3.066963 4.715289 -8.265809 8.651832 -11.008952 23.086095 -11.030240 -7.189810 19.704820 1.796271 2.865314 2.191819 -25.210959 3.371287 -2.339994 144.645946 -3.512580 -11.143866 -4.216173 4.231809 -0.449080 0.766670 -0.658720 0.429770 -9.788927 -2.892889 2.431746 37.452493 3.038474 -13.271420 -149.126148 -6.655743 21.454264 2.373937 -3.532646 -0.121350 0.075190 0.041910 0.225810 
0.341870 17.282140 -8.877750 -3.892859 0.364405 13.302438 -14.982351 11.310239 3.356316 3.905390 -3.230784 -18.587270 -17.689090 4.487965 1.108357 0.084025 4.008790 3.594942 0.152260 0.028250 -0.150140 18.602679 -10.578615 3.447284 -1.254876 2.749362 -18.337836 13.069266 -2.394415 -3.844753 0.103646 -3.547636 3.517827 0.070760 0.798360 0.296300 -4.337898 1.390205 -7.782982 10.932483 0.736817 5.810296 -2.020729 0.416000 -0.106791 2.915524 5.901967 -9.059976 11.157338 -14.340699 20.507621 -12.834010 -7.941400 15.689720 -1.626218 0.042664 2.657433 -20.201264 3.174963 -2.420177 138.684684 -8.471642 -25.145179 -4.142993 4.019678 -0.443810 0.709100 -0.500710 0.517990 -5.453992 -1.533503 4.308001 32.614911 1.448186 -11.391258 -143.976166 -3.815634 1.467918 2.243875 -3.393982 -0.038270 0.095630 -0.134390 0.251850 
0.355560 17.293020 -8.896590 -3.510218 1.276353 13.469421 -15.048556 11.238576 3.261138 3.339626 -3.258583 -18.859811 -17.530607 4.606921 1.514154 -0.074321 4.082347 3.602102 0.224090 0.117820 -0.061980 18.585425 -10.549234 3.343137 -1.473343 2.685275 -18.838078 12.771225 -2.449187 -3.485527 0.115994 -3.586203 3.512697 0.202930 0.844530 0.307990 -4.226132 1.446012 -7.473326 9.169364 1.469021 4.584748 0.343499 0.330527 3.545716 3.255034 6.923275 -8.906112 13.707079 -16.925399 16.552753 -15.531060 -7.873140 12.855410 -2.790145 0.802555 1.927204 -16.520352 3.364719 -1.719398 133.226023 -15.482833 -36.531555 -4.276392 3.788937 -0.460220 0.799860 -0.516730 0.543860 -4.310496 -3.352380 4.970631 29.972646 0.186733 -9.348574 -136.513149 1.631974 -15.131387 2.080184 -3.194157 -0.105150 0.190010 -0.161340 0.212650 
0.358120 17.317270 -8.918720 -3.268514 2.509465 12.910034 -15.121264 11.363668 3.249502 3.205896 -3.301923 -18.719640 -17.468066 4.734976 2.003623 -0.214623 4.095732 3.537155 0.311510 0.182660 0.062270 18.529483 -10.467450 3.235926 -1.249694 2.549743 -18.888313 11.863645 -2.517621 -2.625653 0.095511 -3.416029 3.502532 0.268970 0.720170 0.259100 -4.041543 1.027583 -7.360702 7.719403 1.488841 4.657766 2.071532 0.144387 6.265742 3.170232 8.266997 -9.133691 15.818740 -17.794032 16.651237 -14.417320 -8.825850 9.185990 -2.689658 0.998246 2.219388 -13.809025 5.225265 -1.268525 129.435651 -23.684263 -48.807330 -4.228936 3.578570 -0.335930 0.704070 -0.472820 0.460720 -3.714171 -5.234051 5.205904 27.991538 -2.726750 -8.223526 -130.187447 9.824118 -30.592885 2.013066 -2.946896 -0.135770 0.211250 -0.155160 0.114450 
0.349850 17.341450 -8.944540 -3.515048 2.401764 11.776938 -15.154863 11.550109 3.208058 3.274558 -3.128346 -18.368374 -16.658220 4.893437 2.841652 -0.361640 4.087002 3.501408 0.286740 0.104570 0.095630 18.489040 -10.482352 3.185105 -0.378649 2.432888 -18.428824 10.780667 -2.665516 -1.694308 0.080379 -3.211723 3.569111 0.229810 0.657780 0.198810 -3.929369 0.713286 -7.337661 7.113606 1.901001 5.478632 3.387673 0.597078 8.707638 2.911278 9.481449 -9.683484 17.274859 -18.213010 19.636446 -12.887450 -9.765690 6.420610 -1.197079 1.425244 2.660031 -11.650017 6.837696 -0.356225 126.417974 -32.905743 -61.052426 -4.195850 3.304477 -0.155300 0.610390 -0.435240 0.379250 -4.328269 -7.009628 5.850991 27.177882 -6.509713 -7.414141 -125.431929 19.995908 -45.609760 1.954063 -2.593204 -0.206650 0.294150 -0.070690 0.020660 
0.338350 17.360400 -8.955410 -3.445064 2.278212 10.769084 -15.189955 11.719088 3.234263 3.271829 -2.896062 -17.407174 -16.395698 4.836638 2.446756 -0.287267 3.963139 3.490197 0.326830 0.146230 0.137790 18.436288 -10.522486 3.105396 0.189200 2.287680 -18.313382 9.423718 -2.800944 0.079404 0.053823 -2.982621 3.628743 0.187280 0.520390 0.164090 -3.795242 0.446790 -7.360892 6.229208 2.336635 6.226641 4.614818 1.071972 10.982351 2.509389 9.919870 -10.576397 17.353141 -18.393265 23.700649 -10.358210 -10.926620 5.050810 1.199375 2.500027 3.614102 -11.366293 9.212871 0.702040 128.051343 -42.386336 -78.123798 -4.056368 3.284125 -0.078460 0.472430 -0.343960 0.349320 -5.725102 -8.542351 6.763226 24.544533 -12.359915 -6.132768 -124.039609 31.453700 -62.283583 2.021446 -2.357831 -0.140540 0.251820 -0.101940 0.011080 
0.341440 17.385400 -8.958680 -3.557158 1.958706 9.149122 -15.149317 11.904501 3.267683 3.335091 -2.461291 -15.749491 -16.111978 4.813551 2.208241 -0.049780 3.719533 3.480769 0.445590 0.328550 0.201520 18.427910 -10.671430 3.069222 0.540766 2.071291 -18.006009 8.493376 -3.101095 2.452921 -0.090296 -2.750775 3.678844 0.120720 0.294720 0.200590 -3.836697 0.358811 -7.509712 7.126986 1.852579 7.541760 4.098881 0.954490 13.892762 2.030962 9.716057 -12.532879 16.381217 -18.384306 30.397219 -7.320930 -12.140440 1.731610 2.232216 0.605132 5.701741 -10.634677 16.542385 -0.101497 135.695404 -51.150832 -103.802134 -3.758137 3.583134 0.010400 0.255680 -0.091930 0.386110 -5.856057 -6.718056 8.286672 18.269099 -18.853358 -4.250272 -128.770385 41.265294 -83.232941 2.198376 -2.139848 0.069230 0.152950 -0.219870 0.079930 
0.340280 17.398810 -8.961980 -3.397937 2.146506 8.173318 -15.032320 11.969756 3.228699 2.848068 -2.250063 -15.125767 -15.326478 4.799340 2.652557 0.009693 3.443440 3.505245 0.570440 0.500930 0.272310 18.523645 -10.819280 3.023347 0.215626 1.930924 -18.236465 8.016174 -3.343380 4.258540 -0.214543 -2.576926 3.714698 0.117570 0.142050 0.183880 -4.152900 0.467479 -7.494904 9.165217 1.165400 7.176638 1.579508 0.724468 17.884490 1.668072 9.415674 -13.898678 15.488368 -17.609340 38.129564 -1.248520 -13.417140 -3.918760 1.904677 -1.948783 7.336989 -10.003233 22.710353 -1.272748 150.916547 -55.209615 -134.960519 -3.447816 3.845302 0.145790 0.070970 0.091970 0.409390 -4.738770 -4.658264 9.310239 13.880276 -22.735132 -1.810905 -141.037220 45.592833 -108.962158 2.311066 -2.142197 0.171160 0.149300 -0.302770 0.102260 
0.335460 17.396920 -8.960200 -2.920314 2.629044 7.727345 -14.965938 12.061113 3.183964 1.933367 -2.192458 -15.058309 -14.213209 4.807878 3.644520 0.015358 3.200599 3.539452 0.670060 0.609720 0.363480 18.572481 -10.940343 2.960905 -0.181469 1.964897 -19.293555 7.672766 -3.670638 6.812866 -0.290604 -2.442341 3.729136 0.111610 0.030380 0.193880 -4.329936 0.513494 -7.390671 10.117651 0.560896 6.324273 -0.216015 0.420231 20.822796 1.718021 9.025784 -15.291183 15.051850 -17.017125 45.204646 1.990930 -13.140180 -7.650330 1.875071 -3.128262 8.820723 -12.537094 24.447484 -1.084259 170.743390 -54.418721 -172.370253 -3.233455 3.883445 0.250100 -0.045420 0.223700 0.414550 -4.699817 -3.439867 10.365776 12.823445 -21.468532 1.353390 -157.753728 48.902848 -143.749201 2.343587 -2.236903 0.241170 0.135650 -0.362990 0.097110 
0.329870 17.379800 -8.986450 -2.801536 3.401830 6.730080 -14.965672 12.216330 3.168464 1.718004 -2.187435 -14.876398 -13.269455 4.877121 4.906158 -0.089181 3.145548 3.514405 0.711510 0.602150 0.464250 18.547127 -11.015924 2.917500 -0.119759 1.983596 -19.760588 6.801658 -3.894434 9.180009 -0.329016 -2.345529 3.696202 0.113760 -0.078910 0.182250 -4.303796 0.369640 -7.373385 10.393024 -0.482136 7.795452 -1.161998 -0.224634 22.526853 2.367926 8.475021 -15.978388 14.644698 -16.270098 49.186174 3.669130 -11.822260 -11.735840 2.752371 -2.376475 9.469336 -19.535599 22.286251 -1.693124 -172.584428 -51.700834 150.542057 -3.101340 3.845108 0.405310 -0.144960 0.295890 0.346510 -6.590523 -3.578448 10.965253 14.549683 -19.734546 2.465685 178.742926 50.836857 165.072456 2.233371 -2.293414 0.209850 0.129130 -0.360080 0.010090 
